<svg xmlns="http://www.w3.org/2000/svg" width="256" height="256" viewBox="0 0 256 256"><defs><linearGradient id="g" x1="0" y1="0" x2="1" y2="1"><stop stop-color="#8a63d8" stop-opacity=".20"/><stop offset="1" stop-color="#fff"/></linearGradient><filter id="s"><feDropShadow dx="0" dy="10" stdDeviation="10" flood-color="#17324a" flood-opacity=".12"/></filter></defs><circle cx="128" cy="128" r="112" fill="url(#g)"/><circle cx="128" cy="128" r="82" fill="#fff" fill-opacity=".78" filter="url(#s)"/><g transform="translate(48 48) scale(6.6667)" fill="none" stroke="#8a63d8" stroke-width="1.8" stroke-linecap="round" stroke-linejoin="round"><path d="M3 6a3 3 0 0 1 3-3h12v4h2a2 2 0 0 1 2 2v10a2 2 0 0 1-2 2H5a2 2 0 0 1-2-2V6Z"/><path d="M3 7h15m0 4h4v5h-4a2.5 2.5 0 0 1 0-5Z"/></g></svg>