<svg xmlns="http://www.w3.org/2000/svg" width="256" height="256" viewBox="0 0 256 256"><defs><linearGradient id="g" x1="0" y1="0" x2="1" y2="1"><stop stop-color="#b77b2c" stop-opacity=".20"/><stop offset="1" stop-color="#fff"/></linearGradient><filter id="s"><feDropShadow dx="0" dy="10" stdDeviation="10" flood-color="#17324a" flood-opacity=".12"/></filter></defs><circle cx="128" cy="128" r="112" fill="url(#g)"/><circle cx="128" cy="128" r="82" fill="#fff" fill-opacity=".78" filter="url(#s)"/><g transform="translate(48 48) scale(6.6667)" fill="none" stroke="#b77b2c" stroke-width="1.8" stroke-linecap="round" stroke-linejoin="round"><rect x="3" y="8" width="18" height="13" rx="2"/><path d="M12 8v13M2 12h20M12 8C9 8 7 7 7 5.5S8 3 9.5 3C11.5 3 12 8 12 8Zm0 0c3 0 5-1 5-2.5S16 3 14.5 3C12.5 3 12 8 12 8Z"/></g></svg>